<mxfile host="app.diagrams.net" modified="2021-11-09T19:48:35.611Z" agent="5.0 (Windows)" etag="dUdL76mpvWxff5-AnRw6" version="15.7.0" type="github">
  <diagram id="pxOfD7LpRkYhirPY-hE3" name="Page-1">
    <mxGraphModel dx="569" dy="301" grid="1" gridSize="10" guides="1" tooltips="1" connect="1" arrows="1" fold="1" page="1" pageScale="1" pageWidth="827" pageHeight="1169" math="0" shadow="0">
      <root>
        <mxCell id="0" />
        <mxCell id="1" parent="0" />
        <mxCell id="vwS8IORB6wfq5VYhxDhd-1" value="" style="rounded=1;whiteSpace=wrap;html=1;" vertex="1" parent="1">
          <mxGeometry x="10" y="10" width="470" height="110" as="geometry" />
        </mxCell>
        <mxCell id="vwS8IORB6wfq5VYhxDhd-2" value="&lt;font style=&quot;font-size: 8px&quot;&gt;&amp;nbsp; @GET&lt;br&gt;&amp;nbsp; @Path(&quot;&lt;b&gt;/filter-params&lt;/b&gt;&quot;)&lt;br&gt;&amp;nbsp; @ApiOperation(value = &quot;Get params for Experiments Rolls filter&quot;, response = ParamsFilterExperimentsRollsDto.class)&lt;br&gt;&amp;nbsp; public Response getParams() {&lt;br&gt;&amp;nbsp;&amp;nbsp;&amp;nbsp; &lt;font color=&quot;#000099&quot;&gt;&lt;b&gt;ParamsFilterExperimentsRollsDto &lt;/b&gt;&lt;/font&gt;paramsFilterExperimentsRollsDto = experimentsRollsServiceApi.&lt;b&gt;getParams()&lt;/b&gt;;&lt;br&gt;&amp;nbsp;&amp;nbsp;&amp;nbsp; return ok(paramsFilterExperimentsRollsDto);&lt;br&gt;&amp;nbsp; }&lt;/font&gt;" style="text;whiteSpace=wrap;html=1;" vertex="1" parent="1">
          <mxGeometry x="30" y="10" width="440" height="110" as="geometry" />
        </mxCell>
        <mxCell id="vwS8IORB6wfq5VYhxDhd-3" value="&lt;div align=&quot;left&quot;&gt;@Override&lt;br&gt;&amp;nbsp; public &lt;b&gt;&lt;font color=&quot;#000066&quot;&gt;ParamsFilterExperimentsRollsDto &lt;/font&gt;getParams()&lt;/b&gt; {&lt;br&gt;&amp;nbsp;&amp;nbsp;&amp;nbsp; &lt;font color=&quot;#000099&quot;&gt;&lt;b&gt;ParamsFilterExperimentsRollsDto &lt;/b&gt;&lt;/font&gt;paramsFilterExperimentsRollsDto = new ParamsFilterExperimentsRollsDto();&lt;br&gt;&lt;br&gt;&amp;nbsp;&amp;nbsp;&amp;nbsp; paramsFilterExperimentsRollsDto.setExperiments(new ArrayList&amp;lt;&amp;gt;());&lt;br&gt;&amp;nbsp;&amp;nbsp;&amp;nbsp; List&amp;lt;&lt;font color=&quot;#990000&quot;&gt;&lt;b&gt;Experiment&lt;/b&gt;&lt;/font&gt;&amp;gt; experimentsFromDao = experimentServiceBean.findAll();&lt;br&gt;&amp;nbsp;&amp;nbsp;&amp;nbsp; for (&lt;b&gt;&lt;font color=&quot;#990000&quot;&gt;Experiment x &lt;/font&gt;&lt;/b&gt;: experimentsFromDao) {&lt;br&gt;&amp;nbsp;&amp;nbsp;&amp;nbsp;&amp;nbsp;&amp;nbsp; paramsFilterExperimentsRollsDto.getExperiments()&lt;br&gt;&amp;nbsp;&amp;nbsp;&amp;nbsp;&amp;nbsp;&amp;nbsp;&amp;nbsp;&amp;nbsp;&amp;nbsp;&amp;nbsp; .add(new Item&amp;lt;&amp;gt;(x.getId().toString(), x.getExperimentName().toString()));&lt;br&gt;&amp;nbsp;&amp;nbsp;&amp;nbsp; }&lt;br&gt;&lt;br&gt;&amp;nbsp;&amp;nbsp;&amp;nbsp; return &lt;font color=&quot;#000066&quot;&gt;&lt;b&gt;paramsFilterExperimentsRollsDto&lt;/b&gt;&lt;/font&gt;;&lt;br&gt;&amp;nbsp; }&lt;br&gt;&lt;/div&gt;" style="rounded=1;whiteSpace=wrap;html=1;fontSize=8;" vertex="1" parent="1">
          <mxGeometry x="10" y="130" width="480" height="140" as="geometry" />
        </mxCell>
        <mxCell id="vwS8IORB6wfq5VYhxDhd-5" value="@XmlRootElement(name = &quot;filter-experiment-roll&quot;)&lt;br&gt;public class &lt;font color=&quot;#000099&quot;&gt;&lt;b&gt;ParamsFilterExperimentsRollsDto &lt;/b&gt;&lt;/font&gt;extends BaseGridDocumentParams {&lt;br&gt;&lt;br&gt;&amp;nbsp; private Collection&amp;lt;Item&amp;lt;String&amp;gt;&amp;gt; experiments;&lt;br&gt;&lt;br&gt;&amp;nbsp; private &lt;font color=&quot;#006600&quot;&gt;&lt;b&gt;FilterExperimentsRollsParams&lt;/b&gt;&lt;/font&gt; filterExperimentsRollsParams = new FilterExperimentsRollsParams();&lt;br&gt;}" style="rounded=1;whiteSpace=wrap;html=1;fontSize=8;align=left;" vertex="1" parent="1">
          <mxGeometry x="10" y="280" width="390" height="90" as="geometry" />
        </mxCell>
        <mxCell id="vwS8IORB6wfq5VYhxDhd-6" value="&lt;font color=&quot;#000000&quot;&gt;@XmlRootElement(name = &quot;FilterExperimentRoll&quot;)&lt;br&gt;public class &lt;b&gt;&lt;font color=&quot;#006600&quot;&gt;FilterExperimentsRollsParams&lt;/font&gt; &lt;/b&gt;extends BaseGridDocumentParams {&lt;br&gt;&lt;br&gt;&amp;nbsp; private Long experimentRollId;&lt;br&gt;&amp;nbsp; private ExperimentName experimentName;&lt;br&gt;&amp;nbsp; private Long experimentRollEntityId;&lt;br&gt;}&lt;/font&gt;" style="rounded=1;whiteSpace=wrap;html=1;fontSize=8;fontColor=#000099;align=left;" vertex="1" parent="1">
          <mxGeometry x="10" y="380" width="300" height="80" as="geometry" />
        </mxCell>
        <mxCell id="vwS8IORB6wfq5VYhxDhd-7" value="&lt;font color=&quot;#000000&quot;&gt;@Table(name = &quot;experiment&quot;)&lt;br&gt;public class &lt;b&gt;&lt;font color=&quot;#CC0000&quot;&gt;Experiment &lt;/font&gt;&lt;/b&gt;extends PersistentObject {&lt;br&gt;&lt;br&gt;&amp;nbsp; private ExperimentName experimentName;&lt;br&gt;&amp;nbsp; private Date startDate;&lt;br&gt;&amp;nbsp; private Date endDate;&lt;br&gt;&amp;nbsp; private List&amp;lt;&lt;font color=&quot;#663300&quot;&gt;&lt;b&gt;ExperimentVariation&lt;/b&gt;&lt;/font&gt;&amp;gt; variations;&lt;/font&gt;" style="rounded=1;whiteSpace=wrap;html=1;fontSize=8;fontColor=#000099;align=left;" vertex="1" parent="1">
          <mxGeometry x="10" y="470" width="235" height="90" as="geometry" />
        </mxCell>
        <mxCell id="vwS8IORB6wfq5VYhxDhd-8" value="&lt;font color=&quot;#000000&quot;&gt;@Table(name = &quot;experiment_variation&quot;)&lt;br&gt;&lt;/font&gt;&lt;div&gt;&lt;font color=&quot;#000000&quot;&gt;public class &lt;font color=&quot;#663300&quot;&gt;&lt;b&gt;ExperimentVariation&lt;/b&gt;&lt;/font&gt; {&lt;/font&gt;&lt;/div&gt;&lt;font color=&quot;#000000&quot;&gt;&lt;br&gt;&amp;nbsp; private Experiment experiment;&lt;br&gt;&amp;nbsp; private Long experimentId;&lt;br&gt;&amp;nbsp; private ExperimentVariationName variationName;&lt;br&gt;&amp;nbsp; private String conditionRule;&lt;/font&gt;" style="rounded=1;whiteSpace=wrap;html=1;fontSize=8;fontColor=#990000;align=left;" vertex="1" parent="1">
          <mxGeometry x="10" y="570" width="180" height="90" as="geometry" />
        </mxCell>
        <mxCell id="vwS8IORB6wfq5VYhxDhd-12" value="" style="endArrow=classic;html=1;rounded=0;fontSize=8;fontColor=#663300;exitX=0.864;exitY=0.727;exitDx=0;exitDy=0;exitPerimeter=0;entryX=0.458;entryY=0.071;entryDx=0;entryDy=0;entryPerimeter=0;" edge="1" parent="1" source="vwS8IORB6wfq5VYhxDhd-2" target="vwS8IORB6wfq5VYhxDhd-3">
          <mxGeometry width="50" height="50" relative="1" as="geometry">
            <mxPoint x="200" y="190" as="sourcePoint" />
            <mxPoint x="250" y="140" as="targetPoint" />
          </mxGeometry>
        </mxCell>
        <mxCell id="vwS8IORB6wfq5VYhxDhd-13" value="&lt;div align=&quot;left&quot;&gt;&lt;font color=&quot;#000000&quot;&gt;@POST&lt;/font&gt;&lt;br&gt;&lt;font color=&quot;#000000&quot;&gt;&amp;nbsp; @Path(&quot;&lt;b&gt;/action/by-filter&lt;/b&gt;&quot;)&lt;/font&gt;&lt;br&gt;&lt;font color=&quot;#000000&quot;&gt;&amp;nbsp; public Response getListExperimentsRolls(FilterExperimentsRollsParams filterExperimentsRollsParams) {&lt;/font&gt;&lt;br&gt;&lt;font color=&quot;#000000&quot;&gt;&amp;nbsp;&amp;nbsp;&amp;nbsp; ListExperimentsRollsApiDto listExperimentsRollsApiDto =&lt;/font&gt;&lt;br&gt;&lt;font color=&quot;#000000&quot;&gt;&amp;nbsp;&amp;nbsp;&amp;nbsp;&amp;nbsp;&amp;nbsp;&amp;nbsp;&amp;nbsp; experimentsRollsServiceApi.getExperimentsRolls(filterExperimentsRollsParams);&lt;/font&gt;&lt;br&gt;&lt;font color=&quot;#000000&quot;&gt;&amp;nbsp;&amp;nbsp;&amp;nbsp; return okWrapped(listExperimentsRollsApiDto);&lt;/font&gt;&lt;br&gt;&lt;font color=&quot;#000000&quot;&gt;&amp;nbsp; }&lt;/font&gt;&lt;/div&gt;" style="rounded=1;whiteSpace=wrap;html=1;fontSize=8;fontColor=#000066;align=left;" vertex="1" parent="1">
          <mxGeometry x="560" y="10" width="380" height="110" as="geometry" />
        </mxCell>
      </root>
    </mxGraphModel>
  </diagram>
</mxfile>
